RBDS022runT25_grf
version=1
nRows=12
nColumns=19
inDegrees=no
endheader
time	ground_force_r_vx	ground_force_r_vy	ground_force_r_vz	ground_force_r_px	ground_force_r_py	ground_force_r_pz	ground_force_r_mx	ground_force_r_my	ground_force_r_mz	ground_force_l_vx	ground_force_l_vy	ground_force_l_vz	ground_force_l_px	ground_force_l_py	ground_force_l_pz	ground_force_l_mx	ground_force_l_my	ground_force_l_mz
     14.99900000	    104.98690200	    375.16553333	      2.38773223	      1.96764769	      0.00000000	      1.04151613	     -0.00000000	      2.33015903	     -0.00000000	      0.00000000	      0.00000000	      0.00000000	      0.00000000	      0.00000000	      0.00000000	      0.00000000	      0.00000000	      0.00000000
     15.00000000	    102.97934688	    362.91021739	      2.33281370	      1.96601388	      0.00000000	      1.04173834	     -0.00000000	      2.23052799	     -0.00000000	      0.00000000	      0.00000000	      0.00000000	      0.00000000	      0.00000000	      0.00000000	      0.00000000	      0.00000000	      0.00000000
     15.00100000	    100.86274860	    351.29857201	      2.25490209	      1.96447492	      0.00000000	      1.04200776	     -0.00000000	      2.14211110	     -0.00000000	      0.00000000	      0.00000000	      0.00000000	      0.00000000	      0.00000000	      0.00000000	      0.00000000	      0.00000000	      0.00000000
     15.00200000	     98.74615031	    339.68692663	      2.17699049	      1.96293596	      0.00000000	      1.04227717	     -0.00000000	      2.05369421	     -0.00000000	      0.00000000	      0.00000000	      0.00000000	      0.00000000	      0.00000000	      0.00000000	      0.00000000	      0.00000000	      0.00000000
     15.00300000	     96.62955203	    328.07528125	      2.09907888	      1.96139700	      0.00000000	      1.04254659	     -0.00000000	      1.96527732	     -0.00000000	      0.00000000	      0.00000000	      0.00000000	      0.00000000	      0.00000000	      0.00000000	      0.00000000	      0.00000000	      0.00000000
     15.00400000	     94.46181908	    316.91097196	      2.01190054	      1.95992440	      0.00000000	      1.04284654	     -0.00000000	      1.88432588	     -0.00000000	      0.00000000	      0.00000000	      0.00000000	      0.00000000	      0.00000000	      0.00000000	      0.00000000	      0.00000000	      0.00000000
     15.00500000	     92.26851879	    305.97033071	      1.92008885	      1.95848498	      0.00000000	      1.04316175	     -0.00000000	      1.80710716	     -0.00000000	      0.00000000	      0.00000000	      0.00000000	      0.00000000	      0.00000000	      0.00000000	      0.00000000	      0.00000000	      0.00000000
     15.00600000	     90.07521851	    295.02968946	      1.82827715	      1.95704556	      0.00000000	      1.04347696	     -0.00000000	      1.72988844	     -0.00000000	      0.00000000	      0.00000000	      0.00000000	      0.00000000	      0.00000000	      0.00000000	      0.00000000	      0.00000000	      0.00000000
     15.00700000	     87.86708644	    284.31925181	      1.73455191	      1.95564060	      0.00000000	      1.04380654	     -0.00000000	      1.65633375	     -0.00000000	      0.00000000	      0.00000000	      0.00000000	      0.00000000	      0.00000000	      0.00000000	      0.00000000	      0.00000000	      0.00000000
     15.00800000	     85.62929081	    274.06922137	      1.63699959	      1.95430454	      0.00000000	      1.04416489	     -0.00000000	      1.59010712	     -0.00000000	      0.00000000	      0.00000000	      0.00000000	      0.00000000	      0.00000000	      0.00000000	      0.00000000	      0.00000000	      0.00000000
     15.00900000	     83.39149517	    263.81919094	      1.53944727	      1.95296849	      0.00000000	      1.04452323	     -0.00000000	      1.52388050	     -0.00000000	      0.00000000	      0.00000000	      0.00000000	      0.00000000	      0.00000000	      0.00000000	      0.00000000	      0.00000000	      0.00000000
     15.01000000	     81.15369954	    253.56916050	      1.44189494	      1.95163243	      0.00000000	      1.04488157	     -0.00000000	      1.45765387	     -0.00000000	      0.00000000	      0.00000000	      0.00000000	      0.00000000	      0.00000000	      0.00000000	      0.00000000	      0.00000000	      0.00000000
